<svg width="120" height="40" viewBox="0 0 120 40" xmlns="http://www.w3.org/2000/svg"><title>logo-white</title><g fill="#FFF" fill-rule="evenodd"><path d="M43.234 0h5.053v31.075h-5.053V0z"/><path d="M53.32 21.206l-.073-.357H71.87c.162-.887.252-1.627.252-2.627 0-5.977-4.52-12.103-12.08-12.103-7.01 0-12.295 5.38-12.295 12.48 0 6.902 5.42 12.475 12.337 12.475 5.57 0 9.79-3.75 11.183-7.582h-5.582c-1.17 1.806-3.103 2.874-5.804 2.812-4.103-.094-6.265-3.642-6.56-5.1m-.2-4.634c.85-3.443 3.165-5.45 6.89-5.504 3.554-.05 6.11 2.58 6.596 5.523l.012.125h-13.53l.03-.143"/><path d="M90.196 9.804C90.17 9.767 87.4 6.12 82.69 6.12c-5.73 0-11.923 4.637-11.923 12.128 0 7.764 6.198 12.57 11.946 12.57 4.678 0 7.684-3.6 7.714-3.635l.416-.51-.04.656c-.305 5.252-4.1 7.694-7.495 7.694-.924 0-3.69-.14-5.967-2.5H71.25c1.935 4.132 6.47 7.26 11.647 7.26 4.598 0 12.286-2.757 12.763-12.85.014-.326.028-.684.028-1.026V6.856h-5.053v3.472l-.436-.526zM83.35 26.13c-4.586 0-7.326-3.976-7.326-7.82 0-4.683 3.638-7.48 7.155-7.48 4.303 0 7.195 3.845 7.195 7.436 0 4.923-3.573 7.865-7.026 7.865z"/><path d="M107.524 6.356c-6.862 0-12.445 5.564-12.445 12.402 0 6.79 5.58 12.317 12.443 12.317 5.992 0 12.36-4.347 12.36-12.403 0-6.79-5.545-12.316-12.36-12.316m0 20.01c-3.548 0-7.218-2.846-7.218-7.608 0-5.25 4.307-7.694 7.218-7.694 3.867 0 7.133 3.543 7.133 7.736 0 4.736-3.627 7.566-7.133 7.566M31.353 6.12c-6.932 0-12.572 5.617-12.572 12.52 0 6.856 5.64 12.435 12.575 12.435 6.052 0 12.485-4.388 12.485-12.52 0-6.856-5.602-12.434-12.486-12.434m0 20.01c-3.586 0-7.293-2.844-7.293-7.607 0-5.248 4.353-7.693 7.295-7.693 3.906 0 7.205 3.54 7.205 7.735 0 4.736-3.665 7.566-7.206 7.566"/><path d="M18.198 23.894s-.99 1.008-2.552 1.72c-.862.395-1.898.7-3.044.693-3.58 0-7.205-2.648-7.205-7.71 0-5.06 3.625-7.71 7.205-7.71 1.146-.006 2.182.3 3.044.693a9.35 9.35 0 0 1 2.552 1.72l.024-.057a14.15 14.15 0 0 1 2.612-4.098C17.59 6.343 13.727 6.12 12.602 6.12 5.718 6.12.116 11.68.116 18.514v.172c0 6.832 5.602 12.39 12.486 12.39 1.125 0 4.987-.222 8.232-3.024a14.165 14.165 0 0 1-2.612-4.097l-.024-.058"/></g></svg>